<?xml version="1.0" encoding="utf-8"?>
<!-- Generator: Adobe Illustrator 23.0.2, SVG Export Plug-In . SVG Version: 6.00 Build 0)  -->
<svg version="1.1" xmlns="http://www.w3.org/2000/svg" xmlns:xlink="http://www.w3.org/1999/xlink" x="0px" y="0px"
	 viewBox="0 0 600 200" style="enable-background:new 0 0 600 200;" xml:space="preserve">
<style type="text/css">
	.st0{fill:#414042;}
	.st1{fill:#EC0E80;}
	.st2{fill:#EC8023;}
	.st3{fill:#79B643;}
	.st4{fill:#1560A9;}
	.st5{fill:#E63136;}
	.st6{fill:#F6EA0A;}
	.st7{fill:#1B98A0;}
</style>
<g id="Layer_1">
</g>
<g id="Layer_2">
	<path class="st0" d="M163.69,138.79c0,3.4-1.37,6.46-3.6,8.71c-2.24,2.22-5.3,3.6-8.71,3.6H70.47c-2.03,0-3.95-0.48-5.65-1.39
		c0,0,0,0-0.02,0c-3.23-0.91-6.09-3.13-7.7-6.4l-20.37-41.46H12.3c-6.79,0-12.3-5.51-12.3-12.3c0-3.4,1.37-6.46,3.6-8.71
		c2.24-2.22,5.3-3.6,8.71-3.6h31.82c3.81,0,7.23,1.74,9.5,4.47c0.02,0.04,0.04,0.06,0.06,0.08c0.81,0.85,1.51,1.86,2.07,2.98
		l20.52,41.73h75.12C158.18,126.49,163.69,132,163.69,138.79z"/>
	<circle class="st0" cx="84.97" cy="181.69" r="18.31"/>
	<circle class="st0" cx="134.07" cy="181.69" r="18.31"/>
	<circle class="st1" cx="153.36" cy="52.04" r="32.83"/>
	<circle class="st2" cx="85.8" cy="63.97" r="23.87"/>
	<circle class="st3" cx="124.31" cy="99.52" r="14.65"/>
	<circle class="st4" cx="161.53" cy="106.99" r="13.44"/>
	<circle class="st5" cx="92.61" cy="106.56" r="12.17"/>
	<circle class="st6" cx="105.75" cy="16.77" r="16.77"/>
	<circle class="st7" cx="69.64" cy="24.7" r="12.21"/>
	<g>
		<path class="st0" d="M227.19,92.6c3.52,2.01,6.29,4.79,8.32,8.35c2.03,3.56,3.04,7.59,3.04,12.08s-1.03,8.53-3.08,12.11
			c-2.05,3.58-4.84,6.38-8.35,8.39c-3.52,2.01-7.42,3.01-11.69,3.01c-4.27,0-8.17-1-11.69-3.01c-3.52-2.01-6.3-4.8-8.35-8.39
			c-2.05-3.58-3.08-7.62-3.08-12.11s1.03-8.52,3.08-12.08c2.05-3.56,4.84-6.35,8.35-8.35c3.52-2.01,7.42-3.01,11.69-3.01
			C219.75,89.58,223.67,90.59,227.19,92.6z M206.79,103.41c-2.14,2.35-3.21,5.56-3.21,9.62c0,4.01,1.07,7.21,3.21,9.58
			c2.14,2.38,5.02,3.56,8.65,3.56c3.58,0,6.45-1.19,8.61-3.56c2.16-2.37,3.24-5.57,3.24-9.58c0-4.02-1.07-7.21-3.21-9.59
			c-2.14-2.37-5.02-3.56-8.65-3.56S208.92,101.06,206.79,103.41z"/>
		<path class="st0" d="M277.58,103.7c2.44,2.76,3.66,6.56,3.66,11.4v20.98h-11.08V116.4c0-2.42-0.64-4.31-1.91-5.67
			c-1.27-1.36-2.97-2.04-5.08-2.04c-2.25,0-4.03,0.71-5.34,2.14c-1.32,1.43-1.98,3.46-1.98,6.09v19.17h-11.08V99.95h11.08v6.61
			c1.04-2.16,2.58-3.86,4.63-5.12c2.05-1.25,4.46-1.88,7.22-1.88C271.85,99.56,275.14,100.94,277.58,103.7z"/>
		<path class="st0" d="M299.63,88.16v47.93h-11.08V88.16H299.63z"/>
		<path class="st0" d="M308.05,85.6c1.21-1.1,2.81-1.65,4.79-1.65c1.99,0,3.58,0.55,4.79,1.65s1.81,2.49,1.81,4.18
			c0,1.64-0.6,3.01-1.81,4.11s-2.81,1.65-4.79,1.65c-1.99,0-3.58-0.55-4.79-1.65c-1.21-1.1-1.81-2.47-1.81-4.11
			C306.24,88.1,306.84,86.7,308.05,85.6z M318.35,99.95v36.14h-11.08V99.95H318.35z"/>
		<path class="st0" d="M358.79,103.7c2.44,2.76,3.66,6.56,3.66,11.4v20.98h-11.08V116.4c0-2.42-0.64-4.31-1.91-5.67
			c-1.27-1.36-2.97-2.04-5.08-2.04c-2.25,0-4.03,0.71-5.34,2.14c-1.32,1.43-1.98,3.46-1.98,6.09v19.17h-11.08V99.95h11.08v6.61
			c1.04-2.16,2.58-3.86,4.63-5.12c2.05-1.25,4.46-1.88,7.22-1.88C353.06,99.56,356.35,100.94,358.79,103.7z"/>
		<path class="st0" d="M403.77,120.03h-25.07c0.13,2.72,0.82,4.67,2.07,5.86c1.25,1.19,2.85,1.78,4.79,1.78c1.64,0,3-0.41,4.08-1.23
			c1.08-0.82,1.79-1.88,2.14-3.17h11.72c-0.48,2.55-1.51,4.83-3.11,6.83c-1.6,2.01-3.63,3.58-6.09,4.73
			c-2.46,1.14-5.2,1.72-8.23,1.72c-3.54,0-6.68-0.74-9.42-2.23c-2.74-1.49-4.89-3.64-6.44-6.44c-1.55-2.81-2.33-6.09-2.33-9.84
			c0-3.8,0.77-7.09,2.3-9.88c1.53-2.78,3.68-4.92,6.44-6.41c2.76-1.49,5.92-2.23,9.46-2.23c3.58,0,6.74,0.73,9.46,2.2
			c2.72,1.47,4.83,3.53,6.31,6.19c1.49,2.66,2.23,5.71,2.23,9.16C404.1,117.95,403.99,118.95,403.77,120.03z M390.98,110.02
			c-1.32-1.19-2.95-1.78-4.89-1.78c-2.03,0-3.71,0.61-5.05,1.81c-1.34,1.21-2.09,2.98-2.27,5.31h14.12
			C392.93,112.99,392.3,111.21,390.98,110.02z"/>
		<path class="st0" d="M453.87,129.87c-1.23,2.03-3.04,3.65-5.44,4.86c-2.4,1.21-5.3,1.81-8.71,1.81c-5.14,0-9.37-1.25-12.69-3.76
			c-3.33-2.5-5.14-6-5.44-10.49h11.79c0.17,1.73,0.79,3.09,1.85,4.08c1.06,0.99,2.41,1.49,4.05,1.49c1.42,0,2.55-0.39,3.37-1.17
			c0.82-0.78,1.23-1.81,1.23-3.11c0-1.17-0.38-2.14-1.13-2.92c-0.76-0.78-1.7-1.41-2.82-1.91c-1.12-0.5-2.68-1.09-4.66-1.78
			c-2.89-0.99-5.26-1.95-7.09-2.88c-1.84-0.93-3.41-2.31-4.73-4.15c-1.32-1.83-1.98-4.22-1.98-7.16c0-2.72,0.69-5.07,2.07-7.06
			c1.38-1.99,3.29-3.51,5.73-4.57c2.44-1.06,5.24-1.59,8.39-1.59c5.09,0,9.14,1.21,12.14,3.63c3,2.42,4.7,5.74,5.08,9.97h-11.98
			c-0.22-1.51-0.77-2.71-1.65-3.59c-0.88-0.88-2.08-1.33-3.59-1.33c-1.3,0-2.34,0.35-3.14,1.04c-0.8,0.69-1.2,1.71-1.2,3.04
			c0,1.08,0.36,2,1.07,2.75c0.71,0.76,1.61,1.37,2.69,1.85c1.08,0.48,2.63,1.08,4.66,1.81c2.94,0.99,5.33,1.97,7.19,2.95
			c1.86,0.97,3.45,2.39,4.79,4.24c1.34,1.86,2.01,4.27,2.01,7.25C455.72,125.62,455.1,127.84,453.87,129.87z"/>
		<path class="st0" d="M494.67,103.7c2.44,2.76,3.66,6.56,3.66,11.4v20.98h-11.08V116.4c0-2.42-0.64-4.31-1.91-5.67
			c-1.27-1.36-2.97-2.04-5.08-2.04c-2.25,0-4.03,0.71-5.34,2.14c-1.32,1.43-1.98,3.46-1.98,6.09v19.17h-11.08V88.16h11.08v18.39
			c1.04-2.16,2.58-3.86,4.63-5.12c2.05-1.25,4.46-1.88,7.22-1.88C488.94,99.56,492.23,100.94,494.67,103.7z"/>
		<path class="st0" d="M532.17,101.73c2.83,1.49,5.05,3.64,6.67,6.44s2.43,6.09,2.43,9.84c0,3.76-0.81,7.04-2.43,9.84
			c-1.62,2.81-3.84,4.96-6.67,6.44c-2.83,1.49-6.04,2.23-9.62,2.23c-3.58,0-6.8-0.74-9.65-2.23c-2.85-1.49-5.08-3.64-6.7-6.44
			c-1.62-2.81-2.43-6.09-2.43-9.84c0-3.76,0.81-7.04,2.43-9.84s3.85-4.96,6.7-6.44c2.85-1.49,6.07-2.23,9.65-2.23
			C526.14,99.49,529.34,100.24,532.17,101.73z M517.21,111.38c-1.45,1.53-2.17,3.75-2.17,6.64c0,2.89,0.72,5.1,2.17,6.61
			c1.45,1.51,3.23,2.27,5.34,2.27c2.12,0,3.89-0.75,5.31-2.27c1.42-1.51,2.14-3.71,2.14-6.61c0-2.89-0.71-5.11-2.14-6.64
			c-1.42-1.53-3.2-2.3-5.31-2.3C520.44,109.08,518.66,109.85,517.21,111.38z"/>
		<path class="st0" d="M577.58,101.73c2.35,1.49,4.21,3.63,5.57,6.41c1.36,2.79,2.04,6.08,2.04,9.88c0,3.76-0.68,7.04-2.04,9.84
			c-1.36,2.81-3.22,4.96-5.57,6.44c-2.35,1.49-5.02,2.23-8,2.23c-2.76,0-5.14-0.63-7.12-1.88c-1.99-1.25-3.43-2.96-4.34-5.12v23.77
			h-11.08V99.95h11.08v6.54c0.91-2.16,2.35-3.86,4.34-5.12c1.99-1.25,4.36-1.88,7.12-1.88C572.56,99.49,575.22,100.24,577.58,101.73
			z M560.28,111.57c-1.49,1.58-2.23,3.72-2.23,6.44c0,2.68,0.74,4.82,2.23,6.41c1.49,1.6,3.4,2.4,5.73,2.4
			c2.37,0,4.29-0.78,5.73-2.33c1.45-1.55,2.17-3.71,2.17-6.48c0-2.76-0.72-4.92-2.17-6.48c-1.45-1.55-3.36-2.33-5.73-2.33
			C563.68,109.21,561.77,110,560.28,111.57z"/>
	</g>
	<g>
		<path d="M238.49,152.8c0.72,0.53,1.22,1.24,1.49,2.11v-2.78h1.28v10.13h-1.28v-2.78c-0.27,0.88-0.77,1.58-1.49,2.11
			c-0.72,0.53-1.6,0.8-2.62,0.8c-0.92,0-1.73-0.21-2.46-0.63c-0.72-0.42-1.29-1.02-1.69-1.81s-0.6-1.7-0.6-2.75
			c0-1.06,0.2-1.99,0.6-2.77s0.96-1.38,1.68-1.8c0.72-0.41,1.54-0.62,2.47-0.62C236.9,152,237.77,152.26,238.49,152.8z
			 M233.47,154.23c-0.69,0.72-1.03,1.71-1.03,2.96c0,1.25,0.34,2.24,1.03,2.96c0.69,0.72,1.6,1.08,2.74,1.08
			c0.72,0,1.36-0.17,1.94-0.5c0.57-0.33,1.03-0.81,1.35-1.42c0.33-0.61,0.49-1.32,0.49-2.12c0-0.8-0.16-1.51-0.49-2.12
			c-0.33-0.61-0.78-1.09-1.35-1.42c-0.58-0.33-1.22-0.5-1.94-0.5C235.06,153.15,234.15,153.51,233.47,154.23z"/>
		<path d="M255.8,152.8c0.72,0.53,1.22,1.24,1.47,2.11v-6.38h1.3v13.73h-1.3v-2.78c-0.26,0.88-0.75,1.58-1.47,2.11
			c-0.72,0.53-1.6,0.8-2.62,0.8c-0.92,0-1.73-0.21-2.46-0.63c-0.72-0.42-1.29-1.02-1.69-1.81s-0.6-1.7-0.6-2.75
			c0-1.06,0.2-1.99,0.6-2.77s0.96-1.38,1.68-1.8c0.72-0.41,1.54-0.62,2.47-0.62C254.2,152,255.08,152.26,255.8,152.8z
			 M250.77,154.23c-0.69,0.72-1.03,1.71-1.03,2.96c0,1.25,0.34,2.24,1.03,2.96c0.69,0.72,1.6,1.08,2.74,1.08
			c0.72,0,1.36-0.17,1.94-0.5c0.57-0.33,1.03-0.81,1.35-1.42c0.33-0.61,0.49-1.32,0.49-2.12c0-0.8-0.16-1.51-0.49-2.12
			c-0.33-0.61-0.78-1.09-1.35-1.42c-0.58-0.33-1.22-0.5-1.94-0.5C252.37,153.15,251.46,153.51,250.77,154.23z"/>
		<path d="M268.28,152.8c0.72,0.53,1.22,1.24,1.49,2.11v-2.78h1.28v10.13h-1.28v-2.78c-0.27,0.88-0.77,1.58-1.49,2.11
			c-0.72,0.53-1.6,0.8-2.62,0.8c-0.92,0-1.73-0.21-2.46-0.63c-0.72-0.42-1.29-1.02-1.69-1.81s-0.6-1.7-0.6-2.75
			c0-1.06,0.2-1.99,0.6-2.77s0.96-1.38,1.68-1.8c0.72-0.41,1.54-0.62,2.47-0.62C266.69,152,267.56,152.26,268.28,152.8z
			 M263.26,154.23c-0.69,0.72-1.03,1.71-1.03,2.96c0,1.25,0.34,2.24,1.03,2.96c0.69,0.72,1.6,1.08,2.74,1.08
			c0.72,0,1.36-0.17,1.94-0.5c0.57-0.33,1.03-0.81,1.35-1.42c0.33-0.61,0.49-1.32,0.49-2.12c0-0.8-0.16-1.51-0.49-2.12
			c-0.33-0.61-0.78-1.09-1.35-1.42c-0.58-0.33-1.22-0.5-1.94-0.5C264.85,153.15,263.94,153.51,263.26,154.23z"/>
		<path d="M278.48,161.11v1.15h-1.21c-0.98,0-1.71-0.23-2.19-0.7c-0.48-0.46-0.72-1.25-0.72-2.35v-5.95h-1.54v-1.13h1.54v-2.56h1.32
			v2.56h2.78v1.13h-2.78v5.97c0,0.72,0.13,1.21,0.39,1.47s0.72,0.4,1.37,0.4H278.48z"/>
		<path d="M287.5,152.8c0.72,0.53,1.22,1.24,1.49,2.11v-2.78h1.28v10.13h-1.28v-2.78c-0.27,0.88-0.77,1.58-1.49,2.11
			c-0.72,0.53-1.6,0.8-2.62,0.8c-0.92,0-1.73-0.21-2.46-0.63c-0.72-0.42-1.29-1.02-1.69-1.81s-0.6-1.7-0.6-2.75
			c0-1.06,0.2-1.99,0.6-2.77s0.96-1.38,1.68-1.8c0.72-0.41,1.54-0.62,2.47-0.62C285.9,152,286.78,152.26,287.5,152.8z
			 M282.47,154.23c-0.69,0.72-1.03,1.71-1.03,2.96c0,1.25,0.34,2.24,1.03,2.96c0.69,0.72,1.6,1.08,2.74,1.08
			c0.72,0,1.36-0.17,1.94-0.5c0.57-0.33,1.03-0.81,1.35-1.42c0.33-0.61,0.49-1.32,0.49-2.12c0-0.8-0.16-1.51-0.49-2.12
			c-0.33-0.61-0.78-1.09-1.35-1.42c-0.58-0.33-1.22-0.5-1.94-0.5C284.07,153.15,283.16,153.51,282.47,154.23z"/>
		<path d="M305.79,152.62c0.71,0.42,1.27,1.01,1.67,1.8c0.4,0.79,0.6,1.71,0.6,2.77c0,1.05-0.2,1.97-0.6,2.75
			c-0.4,0.79-0.96,1.39-1.68,1.81c-0.72,0.42-1.53,0.63-2.45,0.63c-1.04,0-1.92-0.27-2.63-0.8c-0.72-0.53-1.21-1.24-1.48-2.11v2.78
			h-1.3v-13.73h1.3v6.38c0.27-0.88,0.77-1.58,1.48-2.11c0.72-0.53,1.59-0.8,2.63-0.8C304.26,152,305.08,152.21,305.79,152.62z
			 M301.04,153.65c-0.57,0.33-1.02,0.81-1.34,1.42c-0.32,0.61-0.48,1.32-0.48,2.12c0,0.8,0.16,1.51,0.48,2.12
			c0.32,0.61,0.77,1.09,1.34,1.42c0.58,0.33,1.22,0.5,1.94,0.5c1.15,0,2.07-0.36,2.75-1.08c0.68-0.72,1.02-1.71,1.02-2.96
			c0-1.25-0.34-2.23-1.02-2.96c-0.68-0.72-1.59-1.08-2.75-1.08C302.26,153.15,301.62,153.32,301.04,153.65z"/>
		<path d="M317.29,152.8c0.72,0.53,1.22,1.24,1.49,2.11v-2.78h1.28v10.13h-1.28v-2.78c-0.27,0.88-0.77,1.58-1.49,2.11
			c-0.72,0.53-1.6,0.8-2.63,0.8c-0.92,0-1.73-0.21-2.46-0.63c-0.72-0.42-1.29-1.02-1.69-1.81c-0.4-0.79-0.6-1.7-0.6-2.75
			c0-1.06,0.2-1.99,0.6-2.77c0.4-0.79,0.96-1.38,1.68-1.8c0.72-0.41,1.54-0.62,2.47-0.62C315.69,152,316.57,152.26,317.29,152.8z
			 M312.26,154.23c-0.69,0.72-1.03,1.71-1.03,2.96c0,1.25,0.34,2.24,1.03,2.96c0.69,0.72,1.6,1.08,2.74,1.08
			c0.72,0,1.36-0.17,1.94-0.5c0.58-0.33,1.03-0.81,1.35-1.42c0.33-0.61,0.49-1.32,0.49-2.12c0-0.8-0.16-1.51-0.49-2.12
			c-0.33-0.61-0.78-1.09-1.35-1.42c-0.58-0.33-1.22-0.5-1.94-0.5C313.86,153.15,312.95,153.51,312.26,154.23z"/>
		<path d="M328.6,152.87c0.67,0.58,1.08,1.37,1.22,2.36h-1.24c-0.07-0.66-0.34-1.2-0.81-1.62s-1.08-0.64-1.86-0.64
			c-0.67,0-1.19,0.16-1.57,0.49c-0.38,0.33-0.57,0.76-0.57,1.31c0,0.41,0.12,0.74,0.36,0.98s0.54,0.44,0.9,0.57s0.84,0.26,1.45,0.4
			c0.74,0.17,1.34,0.35,1.79,0.53c0.45,0.18,0.84,0.46,1.16,0.84c0.32,0.38,0.48,0.9,0.48,1.56c0,0.8-0.3,1.46-0.9,1.98
			c-0.6,0.51-1.39,0.77-2.38,0.77c-1.16,0-2.12-0.29-2.86-0.86c-0.74-0.58-1.18-1.36-1.32-2.37h1.26c0.07,0.67,0.37,1.21,0.87,1.63
			c0.51,0.42,1.19,0.63,2.06,0.63c0.64,0,1.14-0.17,1.5-0.5s0.54-0.77,0.54-1.3c0-0.43-0.12-0.78-0.37-1.04s-0.55-0.45-0.92-0.58
			c-0.37-0.13-0.86-0.27-1.49-0.42c-0.73-0.17-1.31-0.35-1.75-0.52c-0.44-0.17-0.81-0.44-1.12-0.81c-0.31-0.36-0.46-0.86-0.46-1.49
			c0-0.83,0.3-1.5,0.91-2c0.61-0.51,1.43-0.76,2.47-0.76C327.04,152,327.93,152.29,328.6,152.87z"/>
		<path d="M339,160.62c0.62-0.46,0.99-1.08,1.11-1.85h1.37c-0.19,1.08-0.7,1.95-1.54,2.62s-1.9,1-3.19,1
			c-0.96,0-1.82-0.21-2.57-0.62c-0.75-0.41-1.33-1.01-1.75-1.8c-0.42-0.79-0.63-1.71-0.63-2.77c0-1.06,0.21-1.99,0.63-2.77
			c0.42-0.79,1-1.38,1.75-1.8c0.75-0.41,1.6-0.62,2.57-0.62c0.99,0,1.85,0.21,2.57,0.62c0.72,0.42,1.27,0.97,1.65,1.66
			c0.38,0.69,0.57,1.45,0.57,2.26c0,0.35-0.03,0.66-0.07,0.95h-8.38c0.01,0.85,0.19,1.57,0.53,2.14c0.34,0.58,0.78,1,1.33,1.27
			c0.54,0.27,1.13,0.41,1.76,0.41C337.62,161.31,338.38,161.08,339,160.62z M334.96,153.46c-0.54,0.27-0.99,0.69-1.33,1.25
			c-0.34,0.56-0.52,1.26-0.55,2.11h7.16c0.05-0.83-0.09-1.53-0.41-2.1c-0.32-0.57-0.75-0.99-1.3-1.26
			c-0.54-0.27-1.14-0.41-1.78-0.41C336.1,153.06,335.5,153.19,334.96,153.46z"/>
		<path d="M356.58,152.62c0.71,0.42,1.27,1.01,1.67,1.8c0.4,0.79,0.6,1.71,0.6,2.77c0,1.05-0.2,1.97-0.6,2.75
			c-0.4,0.79-0.96,1.39-1.68,1.81c-0.72,0.42-1.53,0.63-2.45,0.63c-1.04,0-1.92-0.27-2.63-0.8c-0.72-0.53-1.21-1.24-1.48-2.11v7.57
			h-1.3v-14.91h1.3v2.78c0.27-0.88,0.77-1.58,1.48-2.11c0.72-0.53,1.59-0.8,2.63-0.8C355.05,152,355.87,152.21,356.58,152.62z
			 M351.83,153.65c-0.58,0.33-1.02,0.81-1.34,1.42c-0.32,0.61-0.48,1.32-0.48,2.12c0,0.8,0.16,1.51,0.48,2.12
			c0.32,0.61,0.77,1.09,1.34,1.42c0.58,0.33,1.22,0.5,1.94,0.5c1.15,0,2.07-0.36,2.75-1.08c0.68-0.72,1.02-1.71,1.02-2.96
			c0-1.25-0.34-2.23-1.02-2.96c-0.68-0.72-1.59-1.08-2.75-1.08C353.05,153.15,352.4,153.32,351.83,153.65z"/>
		<path d="M363.93,152.54c0.66-0.4,1.45-0.59,2.39-0.59v1.41h-0.43c-0.98,0-1.79,0.26-2.43,0.79c-0.64,0.53-0.96,1.38-0.96,2.57
			v5.55h-1.32v-10.13h1.32v2.1C362.8,153.5,363.28,152.93,363.93,152.54z"/>
		<path d="M375.22,152.62c0.76,0.42,1.36,1.01,1.79,1.8s0.65,1.71,0.65,2.77c0,1.06-0.22,1.99-0.65,2.76
			c-0.43,0.78-1.03,1.38-1.79,1.8c-0.76,0.42-1.62,0.63-2.59,0.63c-0.96,0-1.83-0.21-2.6-0.63c-0.77-0.42-1.37-1.02-1.81-1.81
			c-0.44-0.79-0.66-1.7-0.66-2.75c0-1.06,0.22-1.99,0.66-2.77c0.44-0.79,1.04-1.38,1.81-1.8c0.77-0.41,1.63-0.62,2.6-0.62
			C373.6,152,374.46,152.21,375.22,152.62z M370.78,153.58c-0.57,0.3-1.03,0.75-1.37,1.36c-0.35,0.61-0.52,1.36-0.52,2.25
			c0,0.89,0.17,1.64,0.52,2.25c0.35,0.61,0.8,1.06,1.37,1.35c0.57,0.3,1.19,0.45,1.85,0.45c0.66,0,1.26-0.15,1.83-0.45
			s1.02-0.75,1.36-1.35c0.35-0.61,0.52-1.35,0.52-2.25c0-0.89-0.17-1.64-0.52-2.25c-0.35-0.61-0.8-1.07-1.36-1.36
			c-0.56-0.3-1.17-0.44-1.83-0.44C371.96,153.13,371.35,153.28,370.78,153.58z"/>
		<path d="M380.28,152.13l3.52,8.44l3.25-8.44h1.45l-5.95,14.91h-1.48l2.04-4.9l-4.27-10.02H380.28z"/>
		<path d="M396.86,160.62c0.62-0.46,0.99-1.08,1.11-1.85h1.37c-0.19,1.08-0.7,1.95-1.54,2.62s-1.9,1-3.19,1
			c-0.96,0-1.82-0.21-2.57-0.62c-0.75-0.41-1.33-1.01-1.75-1.8c-0.42-0.79-0.63-1.71-0.63-2.77c0-1.06,0.21-1.99,0.63-2.77
			c0.42-0.79,1-1.38,1.75-1.8c0.75-0.41,1.6-0.62,2.57-0.62c0.99,0,1.85,0.21,2.57,0.62c0.72,0.42,1.27,0.97,1.65,1.66
			c0.38,0.69,0.57,1.45,0.57,2.26c0,0.35-0.03,0.66-0.07,0.95h-8.38c0.01,0.85,0.19,1.57,0.53,2.14c0.34,0.58,0.78,1,1.33,1.27
			c0.54,0.27,1.13,0.41,1.76,0.41C395.47,161.31,396.24,161.08,396.86,160.62z M392.81,153.46c-0.54,0.27-0.99,0.69-1.33,1.25
			c-0.34,0.56-0.52,1.26-0.55,2.11h7.16c0.05-0.83-0.09-1.53-0.41-2.1c-0.32-0.57-0.75-0.99-1.3-1.26
			c-0.54-0.27-1.14-0.41-1.78-0.41C393.96,153.06,393.36,153.19,392.81,153.46z"/>
		<path d="M409.41,153.02c0.85,0.68,1.36,1.58,1.55,2.71h-1.35c-0.14-0.8-0.51-1.44-1.13-1.9c-0.62-0.46-1.38-0.7-2.28-0.7
			c-0.66,0-1.26,0.15-1.81,0.44c-0.55,0.3-0.99,0.75-1.32,1.36c-0.33,0.61-0.49,1.36-0.49,2.25c0,0.89,0.16,1.64,0.49,2.25
			c0.33,0.61,0.77,1.07,1.32,1.36c0.55,0.3,1.15,0.45,1.81,0.45c0.9,0,1.66-0.23,2.28-0.7c0.62-0.46,1-1.1,1.13-1.9h1.35
			c-0.19,1.13-0.7,2.03-1.55,2.71c-0.85,0.68-1.91,1.02-3.2,1.02c-0.96,0-1.82-0.21-2.57-0.62c-0.75-0.41-1.33-1.01-1.75-1.8
			c-0.42-0.79-0.63-1.71-0.63-2.77c0-1.06,0.21-1.99,0.63-2.77c0.42-0.79,1-1.38,1.75-1.8c0.75-0.41,1.6-0.62,2.57-0.62
			C407.49,152,408.56,152.34,409.41,153.02z"/>
		<path d="M417.89,161.11v1.15h-1.21c-0.98,0-1.71-0.23-2.19-0.7s-0.72-1.25-0.72-2.35v-5.95h-1.54v-1.13h1.54v-2.56h1.32v2.56h2.78
			v1.13h-2.78v5.97c0,0.72,0.13,1.21,0.39,1.47s0.72,0.4,1.37,0.4H417.89z"/>
	</g>
</g>
</svg>
